#N canvas 299 42 590 854 10;
#X declare -lib mrpeach;
#X obj 39 41 udpreceive 8338;
#X obj 39 71 unpackOSC;
#X obj 98 180 routeOSC /mouth /eyebrow /eye /jaw /nostrils;
#X floatatom 150 283 5 5 12 1 L_eyebrow - -;
#X floatatom 211 259 5 0 0 1 R_eyebrow - -;
#X obj 150 223 routeOSC /left /right;
#X floatatom 157 151 5 0 0 1 num_faces_found - -;
#X text 52 99 OSC message breakout;
#X text 38 13 FaceOSC sends on port 8338 by default;
#X obj 39 121 routeOSC /pose /gesture /found;
#X obj 189 63 import mrpeach;
#X obj 74 456 unpack 0 0;
#X floatatom 36 489 5 0 0 0 - - -;
#X obj 79 551 togedge;
#X obj 80 591 tgl 15 0 empty empty empty 17 7 0 10 -262144 -1 -1 0
1;
#X floatatom 104 487 5 7 8 0 - - -;
#X obj 105 591 tgl 15 0 empty empty empty 17 7 0 10 -262144 -1 -1 0
1;
#X msg 78 619 1;
#X msg 111 620 0;
#X obj 79 523 < 0.3;
#X obj 226 452 unpack 0 0;
#X floatatom 188 485 5 0 0 0 - - -;
#X obj 231 547 togedge;
#X obj 232 587 tgl 15 0 empty empty empty 17 7 0 10 -262144 -1 -1 0
1;
#X floatatom 252 480 5 8 9 0 - - -;
#X obj 257 587 tgl 15 0 empty empty empty 17 7 0 10 -262144 -1 -1 0
1;
#X msg 263 616 0;
#X obj 231 519 > 0.3;
#X text 59 413 frown (reverse);
#X text 219 405 raise (forward);
#X floatatom 179 698 5 0 0 0 - - -;
#X obj 161 571 hradio 15 1 0 3 empty empty empty 0 -6 0 8 -262144 -1
-1 0;
#X msg 230 615 2;
#X obj 181 727 comport 18 115200;
#X connect 0 0 1 0;
#X connect 1 0 9 0;
#X connect 2 1 5 0;
#X connect 3 0 11 0;
#X connect 3 0 20 0;
#X connect 5 0 3 0;
#X connect 5 1 4 0;
#X connect 9 1 2 0;
#X connect 9 2 6 0;
#X connect 11 0 12 0;
#X connect 11 0 19 0;
#X connect 13 0 14 0;
#X connect 13 1 16 0;
#X connect 14 0 17 0;
#X connect 15 0 19 1;
#X connect 16 0 18 0;
#X connect 17 0 30 0;
#X connect 18 0 30 0;
#X connect 19 0 13 0;
#X connect 20 0 21 0;
#X connect 20 0 27 0;
#X connect 22 0 23 0;
#X connect 22 1 25 0;
#X connect 23 0 32 0;
#X connect 24 0 27 1;
#X connect 25 0 26 0;
#X connect 26 0 30 0;
#X connect 27 0 22 0;
#X connect 30 0 33 0;
#X connect 31 0 30 0;
#X connect 32 0 30 0;
